HIERARCHY
ROOT Hips
{
	OFFSET 26.750740 42.421200 -31.489761
	CHANNELS 6 Xposition Yposition Zposition Xrotation Yrotation Zrotation
	JOINT Chest
	{
		OFFSET -0.549623 13.632694 -0.041548
		CHANNELS 3 Xrotation Yrotation Zrotation
		JOINT Chest2
		{
			OFFSET 2.761261 21.168320 -1.828733
			CHANNELS 3 Xrotation Yrotation Zrotation
			JOINT Chest3
			{
				OFFSET 6.768137 13.054138 -2.569370
				CHANNELS 3 Xrotation Yrotation Zrotation
				JOINT Neck
				{
					OFFSET 7.415104 15.608452 0.092381
					CHANNELS 3 Xrotation Yrotation Zrotation
					JOINT Head
					{
						OFFSET 4.786983 9.239670 -1.241352
						CHANNELS 3 Xrotation Yrotation Zrotation
						End Site
						{
							OFFSET 4.851654 9.205666 -1.242897
						}
					}
				}
				JOINT LeftCollar
				{
					OFFSET 3.980873 12.758766 4.813623
					CHANNELS 3 Xrotation Yrotation Zrotation
					JOINT LeftUpArm
					{
						OFFSET 12.921532 -3.107582 11.483740
						CHANNELS 3 Xrotation Yrotation Zrotation
						JOINT LeftLowArm
						{
							OFFSET 10.789581 15.530350 27.966423
							CHANNELS 3 Xrotation Yrotation Zrotation
							JOINT LeftHand
							{
								OFFSET 9.710045 17.826294 22.110733
								CHANNELS 3 Xrotation Yrotation Zrotation
								End Site
								{
									OFFSET 2.122200 3.896057 4.832411
								}
							}
						}
					}
				}
				JOINT RightCollar
				{
					OFFSET 2.314590 13.599106 -3.393471
					CHANNELS 3 Xrotation Yrotation Zrotation
					JOINT RightUpArm
					{
						OFFSET 10.367096 -1.766411 -14.067677
						CHANNELS 3 Xrotation Yrotation Zrotation
						JOINT RightLowArm
						{
							OFFSET 7.630802 20.048271 -26.068600
							CHANNELS 3 Xrotation Yrotation Zrotation
							JOINT RightHand
							{
								OFFSET 12.573040 16.064331 -22.018417
								CHANNELS 3 Xrotation Yrotation Zrotation
								End Site
								{
									OFFSET 2.747955 3.510986 -4.812370
								}
							}
						}
					}
				}
			}
		}
	}
	JOINT LeftUpLeg
	{
		OFFSET 4.340685 0.202312 9.029766
		CHANNELS 3 Xrotation Yrotation Zrotation
		JOINT LeftLowLeg
		{
			OFFSET 37.093719 -17.629559 23.606016
			CHANNELS 3 Xrotation Yrotation Zrotation
			JOINT LeftFoot
			{
				OFFSET 44.553276 2.626522 -2.945343
				CHANNELS 3 Xrotation Yrotation Zrotation
				JOINT LeftToe
				{
					OFFSET 22.659164 -4.117952 5.400394
					CHANNELS 3 Xrotation Yrotation Zrotation
					End Site
					{
						OFFSET 13.309143 -9.031304 17.345352
					}
				}
			}
		}
	}
	JOINT RightUpLeg
	{
		OFFSET -4.340679 -0.202511 -9.029770
		CHANNELS 3 Xrotation Yrotation Zrotation
		JOINT RightLowLeg
		{
			OFFSET -44.087593 -17.317160 -0.642166
			CHANNELS 3 Xrotation Yrotation Zrotation
			JOINT RightFoot
			{
				OFFSET 41.898869 -1.185673 -15.609669
				CHANNELS 3 Xrotation Yrotation Zrotation
				JOINT RightToe
				{
					OFFSET 18.471453 -10.857302 -10.024067
					CHANNELS 3 Xrotation Yrotation Zrotation
					End Site
					{
						OFFSET 5.408688 -19.851904 -11.670654
					}
				}
			}
		}
	}
}
MOTION
Frames: 6
Frame Time: 0.033333
26.938637 42.431648 -30.293879 -0.518652 0.673747 -0.701559 -0.075495 0.139431 0.178896 -1.408507 -0.379524 0.864748 1.124021 -0.120311 0.105095 1.373756 -0.538004 2.100473 0.000000 0.000000 0.000001 -2.245141 -0.569424 0.711928 -0.573100 -1.930902 -0.129079 2.060667 -0.431443 -1.792375 0.000000 0.000001 -0.000000 1.579674 1.387221 0.451978 1.559335 2.032293 0.352703 0.574437 0.035642 -0.738687 0.000006 -0.000003 -0.000007 0.060128 -0.123180 -0.087836 -0.639975 -1.032387 1.087159 1.636534 0.145952 -0.827013 -0.000005 0.000001 -0.000002 0.390325 -0.330047 0.999032 -0.645229 -0.185122 0.168964 -0.470448 1.151026 -1.677548 -0.000000 0.000001 -0.000001 
26.914637 42.427250 -30.466499 -0.896667 1.047525 -0.754259 0.076267 0.114970 0.287004 -0.250249 -0.209764 0.786030 0.359567 -0.666774 -0.040931 1.279782 -0.602329 1.809736 0.000000 0.000000 0.000001 -1.699085 -0.810262 0.446802 -0.728319 -1.531601 -0.291789 1.117595 -0.288868 -1.572468 -0.000000 -0.000000 0.000003 1.601337 1.136228 0.320022 1.134956 1.896044 -0.034622 0.650772 0.116059 -0.609467 0.000004 -0.000001 -0.000002 -0.188565 -0.283230 -0.355890 -0.697876 -1.122607 1.408877 1.788310 0.411030 -0.841215 -0.000002 0.000003 -0.000002 0.721991 -0.631045 1.022604 -0.847472 -0.311177 0.483251 -0.268049 1.355284 -1.978045 0.000003 0.000000 -0.000001 
26.891977 42.423752 -30.634689 -0.931371 1.042982 -0.678766 -0.240241 0.099219 0.174472 0.772673 -0.035613 0.752246 -0.171614 -0.673300 -0.042813 1.276324 -0.471830 1.638283 0.000001 -0.000000 0.000001 -1.360138 -1.149100 0.424487 -0.763329 -1.027727 -0.308021 0.370667 0.077540 -1.350102 0.000002 0.000001 0.000001 1.452338 1.001566 0.252636 0.859401 1.646300 -0.112811 1.112716 -0.418956 -0.703173 0.000004 -0.000005 -0.000003 -0.231066 -0.336173 -0.481768 -0.736286 -1.018363 1.469523 1.826543 0.252659 -0.913498 0.000001 -0.000002 -0.000002 0.823598 -0.724485 0.986217 -0.953205 -0.342887 0.367527 -0.085200 1.335754 -1.770063 -0.000000 0.000001 -0.000002 
26.868622 42.422485 -30.794062 -0.847224 0.826142 -0.558796 -0.145416 0.069618 0.046381 1.385996 0.060674 0.780705 -0.911842 -0.547506 -0.176090 0.159852 -0.716988 1.326693 -0.000000 -0.000000 -0.000001 -0.919796 -0.647712 0.562449 -0.566649 -0.802404 0.120193 0.661192 0.102769 -0.974293 -0.000001 0.000000 0.000002 1.210448 0.593449 0.386574 0.214898 1.126574 0.310988 0.703252 -0.292301 -0.244087 0.000002 -0.000004 -0.000001 -0.536149 -0.447183 -0.527837 -0.439074 -0.584289 1.268404 1.627656 0.135407 -0.861323 -0.000000 -0.000004 -0.000004 0.391519 -0.415191 0.782135 -1.328110 -0.452630 0.549708 0.174211 1.172259 -1.108142 -0.000000 0.000000 -0.000003 
26.842728 42.418961 -30.947775 -0.779408 0.803282 -0.492925 -0.143620 0.034765 0.098617 1.115703 0.065388 0.579664 -0.714385 -0.473066 -0.119753 0.191415 -0.542610 0.872965 0.000000 -0.000000 0.000001 -0.513459 -0.330278 0.609906 -0.004360 -0.758851 0.288366 0.255046 0.439435 -0.694034 -0.000007 0.000002 0.000004 0.531650 0.421007 0.370126 0.189142 0.357987 0.578652 0.616971 -0.280706 0.046004 0.000001 0.000001 -0.000001 -0.634070 -0.520488 -0.503110 -0.102778 -0.150191 1.109061 1.224780 -0.033734 -0.753637 -0.000002 -0.000003 -0.000000 0.591716 -0.471733 0.629036 -1.771403 -0.534838 0.724013 0.967769 1.241231 -0.809211 -0.000002 0.000002 -0.000001 
26.816210 42.419094 -31.096964 -0.506117 0.633567 -0.471150 -0.394661 0.022976 0.128746 1.558777 0.169325 0.491489 -1.058565 -0.407071 -0.106726 -0.417682 -0.550609 0.661281 0.000001 0.000000 0.000001 -0.336104 -0.247084 0.658806 0.079470 -0.342825 0.487809 0.367333 0.523585 -0.488868 0.000002 0.000001 0.000002 0.133071 0.385181 0.424456 0.209152 -0.002708 0.918156 0.227297 -0.608936 -0.007918 0.000008 -0.000003 -0.000003 -0.553834 -0.425926 -0.295922 0.039082 -0.025242 0.793370 0.842580 -0.249633 -0.593779 -0.000001 -0.000004 -0.000001 0.441900 -0.323639 0.645530 -1.724758 -0.506982 0.661523 0.818361 1.146257 -0.771281 -0.000000 0.000001 -0.000003 
